<?xml version="1.0" encoding="UTF-8" standalone="no"?>
<!-- Created with Inkscape (http://www.inkscape.org/) -->

<svg
   width="81.148766mm"
   height="82.685646mm"
   viewBox="0 0 81.148766 82.685646"
   version="1.1"
   id="svg1"
   inkscape:version="1.4.2 (f4327f4, 2025-05-13)"
   sodipodi:docname="deleteGraphIcon.svg"
   xml:space="preserve"
   xmlns:inkscape="http://www.inkscape.org/namespaces/inkscape"
   xmlns:sodipodi="http://sodipodi.sourceforge.net/DTD/sodipodi-0.dtd"
   xmlns:xlink="http://www.w3.org/1999/xlink"
   xmlns="http://www.w3.org/2000/svg"
   xmlns:svg="http://www.w3.org/2000/svg"><sodipodi:namedview
     id="namedview1"
     pagecolor="#ffffff"
     bordercolor="#000000"
     borderopacity="0.25"
     inkscape:showpageshadow="2"
     inkscape:pageopacity="0.0"
     inkscape:pagecheckerboard="0"
     inkscape:deskcolor="#d1d1d1"
     inkscape:document-units="mm"
     inkscape:zoom="1.9477379"
     inkscape:cx="171.73768"
     inkscape:cy="139.39247"
     inkscape:window-width="1920"
     inkscape:window-height="991"
     inkscape:window-x="-9"
     inkscape:window-y="-9"
     inkscape:window-maximized="1"
     inkscape:current-layer="layer1" /><defs
     id="defs1"><linearGradient
       id="linearGradient2299"
       x1="76"
       xlink:href="#BlackTransparent"
       gradientUnits="userSpaceOnUse"
       y1="105.3"
       gradientTransform="matrix(0.9,0,0,0.9,3.5,9)"
       x2="76"
       y2="86" /><linearGradient
       id="BlackTransparent"><stop
         id="stop8"
         offset="0" /><stop
         id="stop10"
         stop-opacity="0"
         offset="1" /></linearGradient><linearGradient
       id="WhiteTransparent"><stop
         id="stop13"
         stop-color="#fff"
         offset="0" /><stop
         id="stop15"
         stop-color="#fff"
         stop-opacity="0"
         offset="1" /></linearGradient><linearGradient
       id="linearGradient6182"
       xlink:href="#WhiteTransparent"
       gradientUnits="userSpaceOnUse"
       x2="0"
       y1="21"
       y2="30" /><linearGradient
       id="linearGradient6185"
       xlink:href="#WhiteTransparent"
       gradientUnits="userSpaceOnUse"
       x2="0"
       y1="71"
       y2="59" /><linearGradient
       id="linearGradient6188"
       xlink:href="#WhiteTransparent"
       gradientUnits="userSpaceOnUse"
       x2="0"
       y1="52"
       y2="16" /><linearGradient
       id="linearGradient6192"
       xlink:href="#BlackTransparent"
       gradientUnits="userSpaceOnUse"
       x2="0"
       y1="35"
       y2="48" /><linearGradient
       id="linearGradient6197"
       x1="13"
       xlink:href="#BlackTransparent"
       gradientUnits="userSpaceOnUse"
       x2="13"
       y1="56"
       y2="102" /><linearGradient
       id="linearGradient6213"
       gradientUnits="userSpaceOnUse"
       x2="46"
       x1="22"
       xlink:href="#WhiteTransparent" /><linearGradient
       id="linearGradient6216"
       gradientUnits="userSpaceOnUse"
       x2="60"
       x1="96"
       xlink:href="#WhiteTransparent" /><clipPath
       id="clipoutline1"
       clipPathUnits="userSpaceOnUse"><path
         id="outline1"
         d="m60.3 27.4c-19.9 0-35.9 7.6-35.9 16.6v56.8c0 9.2 16 16.5 35.9 16.5 19.7 0 35.7-7.3 35.7-16.5v-56.8c0-9-16-16.6-35.7-16.6z" /></clipPath><clipPath
       id="clipoutline2"
       clipPathUnits="userSpaceOnUse"><path
         id="outline2"
         d="m59.6 18c-23.3 0-42 9.8-42.6 21.7v9.8c0 12.5 19.5 22.5 43.7 22.5 24.3 0 43.7-10 43.7-22.5v-9.7c0-12.2-19.8-21.8-43.7-21.8h-1.1z" /></clipPath><filter
       id="ShadowBlur"
       y="0"
       x="0"
       filterUnits="userSpaceOnUse"><feGaussianBlur
         id="feGaussianBlur31"
         in="SourceAlpha"
         stdDeviation="3"
         result="blur" /></filter></defs><g
     inkscape:label="Camada 1"
     inkscape:groupmode="layer"
     id="layer1"
     transform="translate(-54.327297,-67.006466)"><g
       id="g35"
       transform="matrix(0.75064518,0,0,0.65339298,49.307694,65.891187)"><g
         id="g37"><path
           id="path39"
           filter="url(#ShadowBlur)"
           d="m 105.87,105 c 0,10.76 -20.021,19.49 -44.69,19.49 -24.67,0 -44.692,-8.73 -44.692,-19.49 0,-10.753 20.022,-19.483 44.692,-19.483 24.669,0 44.69,8.73 44.69,19.483 z"
           class="filter base-shadow" /><g
           id="g41"><use
             id="use43"
             xlink:href="#outline1"
             class="outline-big" /><use
             id="use45"
             xlink:href="#outline1"
             class="outline-small stroke-aluminium5" /></g><path
           id="path47"
           d="M 60.4,30 C 40.6,30 24.7,37.6 24.7,46.7 v 54 c 0,9.1 15.9,16.3 35.7,16.3 C 80,117 96,109.8 96,100.7 v -54 C 96,37.6 80,30 60.4,30 Z"
           fill="#888a85" /><path
           id="path49"
           d="M 60.4,27.6 C 40.5,27.6 40.5,117 60.4,117 80,117 96,109.9 96,100.7 V 44 C 96,35 80,27.6 60.4,27.6 Z"
           fill="url(#linearGradient6216)"
           class="specularity"
           style="fill:url(#linearGradient6216)" /><path
           id="path51"
           d="M 42.4,58 24.7,49.7 V 101 c 0,5 7.3,11.7 17.8,13.7 z"
           fill="url(#linearGradient6213)"
           class="high-specularity"
           style="fill:url(#linearGradient6213)" /><path
           id="path53"
           d="M 24.6,57.7 V 75.4 C 45.5,90.5 75.5,91 96,75.4 V 57.7 C 76,74 45,72.5 24.6,57.7 Z"
           fill="url(#linearGradient6197)"
           class="shade"
           style="fill:url(#linearGradient6197)" /><use
           id="use55"
           clip-path="url(#clipoutline1)"
           xlink:href="#outline1"
           class="stroke-highlight" /></g><g
         id="g57"><g
           id="g59"><use
             id="use61"
             xlink:href="#outline2"
             class="outline-big" /><use
             id="use63"
             xlink:href="#outline2"
             class="outline-small stroke-aluminium5" /></g><path
           id="path65"
           class="aluminium2"
           d="m 60.7,18 c 24.3,0 43.7,10 43.7,22 v 3.5 C 104.4,56 85,66 60.7,66 36.5,66 17,56 17,43.5 V 40 C 17,28 36.5,18 60.7,18 Z" /><path
           id="path67"
           class="aluminium4"
           d="M 60.7,59 C 85,59 104.4,52.6 104.4,39.4 V 49.5 C 104.4,62 85,72 60.7,72 36.5,72 17,62 17,49.5 V 39.4 C 17,47.3 36.5,59 60.7,59 Z" /><path
           id="path69"
           opacity="0.5"
           d="m 16.473,36.525 c 0,11.4 27.282,17.545 44.227,17.545 17.652,0 43.7,-3.745 43.7,-17.545 v 3.359 c 0,16.05 -29.4,19.25 -43.7,19.25 -13.8,0 -44.319,-8.339 -44.319,-20.339"
           fill="url(#linearGradient6188)"
           style="fill:url(#linearGradient6188)" /><path
           id="path71"
           d="M 61,59 C 33.7,59 4.5,46.6 26.5,62.7 c 8.2,6 20.2,9 34.5,9 14.4,0 26,-3 34.7,-9 C 117,47.5 88,59 61,59 Z"
           fill="url(#linearGradient6185)"
           class="specularity"
           style="fill:url(#linearGradient6185)" /><use
           id="use73"
           clip-path="url(#clipoutline2)"
           xlink:href="#outline2"
           class="stroke-highlight" /><g
           id="g75"><path
             id="path77"
             d="m 41.4,35.6 h 40.1 c 4.5,0 4.5,6.9 0,6.9 H 41.4 c -4.4,0 -4.6,-6.9 0,-6.9 z"
             fill="url(#linearGradient6192)"
             class="shade"
             style="fill:url(#linearGradient6192)" /><path
             id="path79"
             d="m 61.6,19.3 c -18.6,0 -20.1,6 -20.1,12.3 v 6.8 c 0,2.9 7.5,2.3 7.5,0 V 36 c 0,-4.4 4.5,-5.5 12.6,-5.5 8.1,0 12.4,1.1 12.4,5.5 v 2.4 c 0,2.3 7.6,2.3 7.6,0 v -6.8 c 0,-6.3 -1.6,-12.3 -20,-12.3 z" /><path
             id="path81"
             d="M 61.6,21.3 C 53.4,21.3 47,22.5 47,27.4 h 29 c 0,-4.9 -6.3,-6.1 -14.4,-6.1 z"
             fill="url(#linearGradient6182)"
             class="specularity"
             style="fill:url(#linearGradient6182)" /></g></g><g
         id="g83"><path
           id="path85"
           opacity="0.5"
           d="M 32,83.6 V 99 c 0,6.9 8,7 8,0 V 83.6 c 0,-5.3 -8,-5.7 -8,0 z m 48,0 V 99 c 1.9,5.9 7.5,4.7 8,0 V 83.6 c 0,-5 -7.8,-4.9 -8,0 z M 47.4,87.7 V 106 c 0,6.3 8.5,5.7 8.6,0 V 87.7 c 0,-5.4 -8.5,-5.7 -8.6,0 z m 16.6,0 V 106 c 0,6.5 8.9,5.8 9,0 V 87.7 c -1.4,-6.1 -8.2,-5.5 -9,0 z" /><path
           id="path87"
           opacity="0.5"
           d="m 88,91 c 0,4.2 -8,4 -8,0 v 7.4 c 0,5.6 8,6.3 8,0 z m -56,0 v 7.4 c 0,8 8,7.6 8,0 V 91 c 0,4.9 -8,4.6 -8,0 z m 24,6.8 c 0,5.1 -8.6,4.2 -8.6,0 v 7.9 c 0,6.9 8.5,5.9 8.6,0 z m 17,0 c 0,5.8 -9,4.9 -9,0 v 7.9 c 0,7.1 9,6.3 9,0 z"
           fill="url(#linearGradient2299)"
           style="fill:url(#linearGradient2299)" /></g></g></g><style
     id="style33"
     type="text/css">.specularity {opacity:0.5;}
	.high-specularity {opacity:0.75;}
	.low-specularity {opacity:0.25;}
	.full-specularity {opacity:1;}
	.shade{opacity:0.5;}
	.black {fill:#000000;}
	.white {fill:#ffffff;}
	.outline-big {stroke-width:16;stroke:none;opacity:0.;fill:none;}
	.outline-small {stroke-width:8px;stroke:black;opacity:1;fill:none;}
	.stroke-highlight {fill:none;stroke:white;opacity:0.3;stroke-width:9px;stroke-linejoin:round;}
				.base-shadow 	{fill:black;opacity:0.4;}
	.stroke-aluminium5	{stroke:#555753;}
	.aluminium1	{fill:#eeeeec;}
	.aluminium2	{fill:#d3d7cf;}
	.aluminium3	{fill:#babdb6;}
	.aluminium4	{fill:#888a85;}
	.aluminium5	{fill:#555753;}
	.aluminium6	{fill:#2e3436;}</style></svg>
