<?xml version="1.0" encoding="UTF-8" standalone="no"?>
<!-- Created with Inkscape (http://www.inkscape.org/) -->

<svg
   width="81.148766mm"
   height="82.685646mm"
   viewBox="0 0 81.148766 82.685646"
   version="1.1"
   id="svg1"
   inkscape:version="1.4.2 (f4327f4, 2025-05-13)"
   sodipodi:docname="editIcon.svg"
   xml:space="preserve"
   xmlns:inkscape="http://www.inkscape.org/namespaces/inkscape"
   xmlns:sodipodi="http://sodipodi.sourceforge.net/DTD/sodipodi-0.dtd"
   xmlns="http://www.w3.org/2000/svg"
   xmlns:svg="http://www.w3.org/2000/svg"><sodipodi:namedview
     id="namedview1"
     pagecolor="#ffffff"
     bordercolor="#000000"
     borderopacity="0.25"
     inkscape:showpageshadow="2"
     inkscape:pageopacity="0.0"
     inkscape:pagecheckerboard="0"
     inkscape:deskcolor="#d1d1d1"
     inkscape:document-units="mm"
     inkscape:zoom="0.68862935"
     inkscape:cx="-41.38656"
     inkscape:cy="112.5424"
     inkscape:window-width="1920"
     inkscape:window-height="991"
     inkscape:window-x="-9"
     inkscape:window-y="-9"
     inkscape:window-maximized="1"
     inkscape:current-layer="layer1" /><defs
     id="defs1" /><g
     inkscape:label="Camada 1"
     inkscape:groupmode="layer"
     id="layer1"
     transform="translate(-54.327297,-67.006466)"><g
       id="g7"
       transform="matrix(0.15376472,0,0,0.17472892,55.527649,73.193172)">
	<g
   id="g2">
		<polygon
   style="fill:#d6d5d5"
   points="314.281,161.325 273.221,120.258 106.811,286.672 147.874,327.736 "
   id="polygon1" />
		<polygon
   style="fill:#c17b39"
   points="0,404.624 0,374.431 144.829,229.602 204.944,289.714 60.088,434.57 29.964,434.577 "
   id="polygon2" />
	</g>
	<polygon
   style="fill:#adacad"
   points="310.958,164.649 270.399,123.081 213.768,179.704 295.896,179.704 "
   id="polygon3" />
	<g
   id="g6">
		<path
   style="fill:#504f4f"
   d="m 266.248,63.565 1.226,1.524 c -0.491,-0.61 -0.907,-1.146 -1.226,-1.524 z m 2.063,2.524 c -0.072,-0.065 -0.134,-0.155 -0.219,-0.244 l 0.299,0.392 c -0.007,-0.035 -0.038,-0.069 -0.052,-0.124 0,0 -0.014,-0.01 -0.028,-0.024 z M 195.516,11.69 c 25.847,10.341 53.407,34.451 70.11,51.144 l 0.1,0.1 c 0,0 0.01,0.02 0.044,0.044 0.951,0.979 1.803,2.012 2.541,3.111 0.014,0.014 0.027,0.024 0.027,0.024 0.347,0.467 0.718,0.934 1.092,1.401 l -1.04,-1.277 c 7.406,11.241 3.879,29.012 -11.67,44.555 l -6.204,20.508 53.97,53.963 21.157,-5.548 19.529,-19.526 c 9.751,-9.751 26.664,-12.377 42.169,3.125 8.659,8.662 4.264,21.208 6.009,31.316 0.563,3.289 1.764,6.317 4.326,8.872 l 37.926,37.919 c 5.383,5.397 14.132,5.383 19.515,-0.007 l 52.834,-52.827 c 5.383,-5.39 5.398,-14.142 0.014,-19.523 l -37.926,-37.932 c -2.561,-2.548 -5.582,-3.76 -8.879,-4.313 -10.101,-1.747 -22.654,2.644 -31.313,-6.005 -10.163,-10.166 -0.069,-23.364 -8.295,-37.009 -1.085,-1.823 -2.493,-3.646 -4.313,-5.459 0,0 -43.687,-43.694 -73.544,-73.551 -37.908,-37.908 -103.373,-35.618 -143.857,-19.828 -15.8,3.75 -20.782,20.117 -4.322,26.723 z"
   id="path3" />
		<path
   style="fill:#5b5b5c"
   d="m 461.159,126.819 -67.81,67.81 c 0.563,3.289 1.764,6.317 4.326,8.872 l 37.926,37.919 c 5.383,5.397 14.132,5.383 19.515,-0.007 l 52.834,-52.827 c 5.383,-5.39 5.398,-14.142 0.014,-19.523 l -37.926,-37.932 c -2.561,-2.547 -5.582,-3.759 -8.879,-4.312 z"
   id="path4" />
		<path
   style="fill:#5b5b5c"
   d="m 195.516,11.69 c 25.847,10.341 53.407,34.451 70.11,51.144 l 0.1,0.1 c 0,0 0.01,0.02 0.044,0.044 0.055,0.089 0.189,0.244 0.374,0.467 l 0.103,0.12 1.226,1.524 0.618,0.755 0.299,0.392 c 7.406,11.241 3.879,29.012 -11.67,44.555 l -6.204,20.508 53.97,53.963 21.157,-5.548 95.909,-95.91 c -1.085,-1.823 -2.493,-3.646 -4.313,-5.459 0,0 -43.687,-43.694 -73.544,-73.551 -37.908,-37.908 -103.373,-35.618 -143.857,-19.828 -15.8,3.751 -20.782,20.118 -4.322,26.724 z"
   id="path5" />
		<path
   style="fill:#777778"
   d="m 507.957,188.587 -52.82,52.834 c -5.398,5.397 -14.153,5.397 -19.543,0 l 72.363,-72.37 c 5.391,5.394 5.391,14.145 0,19.536 z"
   id="path6" />
	</g>
</g></g></svg>
